<svg id="visual" viewBox="0 0 960 300" width="960" height="300" xmlns="http://www.w3.org/2000/svg" xmlns:xlink="http://www.w3.org/1999/xlink" version="1.1"><rect x="0" y="0" width="960" height="300" fill="#fff"></rect><path d="M0 179L40 166.7C80 154.3 160 129.7 240 132.7C320 135.7 400 166.3 480 186.2C560 206 640 215 720 216.5C800 218 880 212 920 209L960 206L960 301L920 301C880 301 800 301 720 301C640 301 560 301 480 301C400 301 320 301 240 301C160 301 80 301 40 301L0 301Z" fill="#171816" stroke-linecap="round" stroke-linejoin="miter"></path></svg>